<?xml version="1.0" standalone="no"?>
<!DOCTYPE svg PUBLIC "-//W3C//DTD SVG 20010904//EN"
 "http://www.w3.org/TR/2001/REC-SVG-20010904/DTD/svg10.dtd">
<svg version="1.0" xmlns="http://www.w3.org/2000/svg"
 width="330.000000pt" height="330.000000pt" viewBox="0 0 330.000000 330.000000"
 preserveAspectRatio="xMidYMid meet">
<metadata>
Created by potrace 1.11, written by Peter Selinger 2001-2013
</metadata>
<g transform="translate(0.000000,330.000000) scale(0.100000,-0.100000)"
fill="#000000" stroke="none">
<path d="M1405 3280 c-55 -10 -109 -20 -120 -23 -11 -3 -41 -10 -66 -16 -26
-6 -79 -22 -119 -37 -366 -132 -666 -380 -868 -716 -52 -87 -112 -211 -112
-232 0 -6 -4 -16 -9 -21 -16 -18 -64 -188 -85 -300 -3 -16 -8 -43 -12 -60 -13
-64 -11 -361 3 -454 83 -556 426 -1024 924 -1260 140 -67 283 -112 459 -146
74 -14 394 -14 487 0 682 104 1225 607 1371 1270 11 50 25 112 30 139 10 52 9
424 -2 466 -3 14 -9 41 -12 60 -9 60 -52 212 -79 284 -116 308 -334 583 -616
779 -180 125 -458 237 -654 263 -27 3 -54 9 -59 12 -5 3 -89 6 -185 7 -130 2
-202 -2 -276 -15z"/>
</g>
</svg>
